<svg xmlns="http://www.w3.org/2000/svg" version="1.2" viewBox="0 0 1426 1554"><ellipse cx="712.7" cy="776.8" fill="#a2674f" rx="712.7" ry="776.8"/><path fill="#fff" d="M952.5 330.7h44.1c0 45.6 6.6 185.6 8.3 200.7-.2 5.1.2 10.2 1 15.2.8 4.9 2.1 9.9 3.8 14.6 1.8 4.8 3.9 9.3 6.5 13.7 2.6 4.3 5.6 8.4 8.9 12.2q6.1 6.2 12 12.6 5.9 6.4 11.7 12.9 5.7 6.5 11.2 13.2 5.5 6.7 10.8 13.6c5.4 7.4 10.1 15.3 14.2 23.4 4.1 8.2 7.6 16.7 10.3 25.4 2.7 8.8 4.7 17.7 6 26.8 1.3 9 1.8 18.2 1.6 27.3 0 16.9-5.1 436.9-5.1 453.8H1057c0-5.1 5.1-438.6 5.1-453.8.3-6.6.1-13.3-.7-19.9-.9-6.6-2.3-13.1-4.3-19.4-2-6.3-4.6-12.4-7.7-18.3-3.2-5.9-6.8-11.4-11-16.6q-4.9-6.1-10-11.9-5.1-5.9-10.4-11.6-5.2-5.7-10.7-11.3-5.4-5.5-11.1-10.9c-5.3-6-10.2-12.4-14.4-19.3-4.3-6.8-7.9-14-10.9-21.4-3-7.5-5.4-15.2-7.1-23.1-1.7-7.8-2.7-15.8-3-23.9-1.6-18.5-8.3-161.9-8.3-205.8zm-518.6-3.5h40.6c0 44-6.6 187.2-8.3 205.8-.1 8.1-.9 16.1-2.5 24-1.5 8-3.9 15.7-6.9 23.2-3 7.5-6.7 14.7-11.1 21.5-4.4 6.8-9.4 13.1-15 19q-5.6 5.4-11.1 10.9-5.4 5.5-10.7 11.3-5.3 5.7-10.4 11.5-5.1 5.9-10 11.9c-4.1 5.3-7.7 10.9-10.8 16.7-3 5.9-5.6 12-7.6 18.4-2 6.3-3.5 12.8-4.4 19.3-.8 6.6-1.1 13.2-.8 19.9 0 16.8 5 450.4 5 453.7h-40.6c0-16.9-5-436.9-5-453.7-.3-9.2.3-18.5 1.6-27.6 1.3-9.1 3.5-18.1 6.3-26.8 2.9-8.8 6.5-17.3 10.8-25.4 4.4-8.1 9.4-15.9 15-23.1q5.2-7 10.6-13.8 5.5-6.8 11.2-13.3 5.7-6.6 11.7-12.9 6-6.3 12.2-12.3c3.6-3.7 6.8-7.7 9.6-12s5.1-8.9 7-13.7c1.9-4.7 3.3-9.7 4.2-14.7.9-5.1 1.3-10.2 1.2-15.3 1.5-16.8 8.3-156.9 8.3-200.7zm422.3 853.6c-1.6 13.5-10.1 16.9-23.6 16.9H587.5c-13.5 0-23.6-3.4-23.6-16.9 0-13.5 11.8-16.8 23.6-18.5 13.5-1.9 62.5-8.5 74.3-10.2 3.3-.5 6.5-1.6 9.4-3.1 2.9-1.6 5.6-3.7 7.9-6.1 2.3-2.4 4.1-5.2 5.5-8.2 1.4-3 2.2-6.3 2.6-9.6 0-13.5 3.3-332.3 3.3-381.2 0-50.6-23.6-77.6-64.1-118.1-5.5-6-10.3-12.4-14.6-19.2-4.3-6.8-8-14-11-21.5-3-7.4-5.4-15.2-7-23-1.7-7.9-2.6-15.9-2.9-24-1.5-18.6-8.3-133.2-8.3-178.8v-27h261.7v26.9c0 45.6-6.6 160.3-8.3 178.8-.3 8-1.2 15.9-2.9 23.6-1.6 7.8-4 15.4-7 22.7-3 7.3-6.7 14.4-11 21-4.3 6.7-9.2 13-14.6 18.8-9.3 6.8-17.8 14.5-25.5 23.1-7.6 8.6-14.3 18-20 28-5.6 10-10.2 20.6-13.6 31.6-3.5 10.9-5.7 22.2-6.8 33.7 1.7 57.4 3.4 369.4 3.4 381.2.2 3.4 1 6.7 2.3 9.8 1.3 3.1 3.2 5.9 5.5 8.3 2.3 2.5 5 4.5 8 6 3 1.6 6.2 2.5 9.5 2.9 13.5 1.9 59.2 8.5 72.6 10.2 12 1.7 23.7 5 20.3 21.9z"/></svg>